<?xml version="1.0" standalone="no"?>
<!DOCTYPE svg PUBLIC "-//W3C//DTD SVG 20010904//EN"
 "http://www.w3.org/TR/2001/REC-SVG-20010904/DTD/svg10.dtd">
<svg version="1.0" xmlns="http://www.w3.org/2000/svg"
 width="683.000000pt" height="1024.000000pt" viewBox="0 0 683.000000 1024.000000"
 preserveAspectRatio="xMidYMid meet">

<g transform="translate(0.000000,1024.000000) scale(0.100000,-0.100000)"
fill="#000000" stroke="none">
<path d="M4116 9443 c-52 -15 -60 -20 -111 -73 -18 -19 -51 -44 -72 -55 -50
-25 -74 -46 -67 -57 3 -4 0 -7 -8 -6 -7 2 -22 -15 -33 -37 -17 -34 -20 -57
-18 -155 1 -63 5 -149 7 -190 3 -41 6 -84 6 -95 1 -19 2 -19 12 -1 6 11 8 46
4 90 -8 92 14 243 46 304 25 51 76 84 129 86 16 1 29 5 29 10 0 5 6 4 13 -2 6
-5 32 -10 57 -10 84 0 98 -2 119 -19 25 -21 58 -108 67 -176 7 -47 6 -49 -15
-42 -28 9 -166 -21 -181 -40 -21 -25 8 -25 78 0 38 14 78 25 88 25 30 0 64
-29 64 -54 0 -25 -25 -42 -36 -25 -3 6 -12 8 -20 5 -8 -3 -13 0 -11 7 1 8 -14
13 -43 14 -43 1 -43 1 -10 -6 27 -6 31 -9 18 -15 -9 -4 -21 -6 -25 -3 -4 2
-24 -10 -43 -29 l-34 -33 28 -11 c16 -6 31 -8 34 -5 4 3 -3 8 -15 11 -20 6
-20 7 -5 25 23 27 51 25 49 -3 0 -13 -6 -27 -12 -31 -5 -5 6 -6 25 -2 19 3 45
6 58 5 13 0 20 5 17 10 -10 15 5 12 22 -6 13 -13 17 -13 24 -2 6 9 9 4 9 -15
0 -17 -4 -26 -11 -22 -5 4 -4 -8 4 -27 28 -66 69 -261 65 -310 -2 -37 0 -45 8
-33 19 26 27 16 9 -11 -9 -15 -12 -23 -5 -19 8 5 10 2 7 -11 -3 -11 -9 -35
-12 -54 -4 -19 -12 -41 -17 -47 -7 -9 -7 -13 1 -13 7 0 11 -19 11 -47 0 -42
-6 -53 -40 -90 -32 -34 -51 -44 -108 -59 l-69 -18 -35 27 c-44 34 -106 123
-114 165 -4 18 -12 32 -19 32 -8 0 -28 12 -45 26 -23 20 -34 24 -42 16 -9 -9
-15 -8 -26 1 -12 9 -16 9 -20 -1 -2 -7 -17 -19 -32 -27 -34 -17 -44 -19 -35
-5 4 6 -1 7 -12 3 -16 -6 -17 -5 -3 13 14 18 14 18 -4 4 -18 -14 -19 -13 -13
2 8 21 -10 35 -26 19 -8 -8 -8 -11 1 -11 7 0 12 -6 12 -14 0 -8 7 -16 15 -20
20 -7 19 -36 -1 -36 -10 0 -14 6 -10 15 4 12 2 13 -14 3 -10 -7 -23 -9 -27 -5
-4 5 -1 12 7 17 9 6 10 10 3 10 -6 0 -15 -4 -18 -10 -9 -15 -35 -12 -29 4 3 8
-3 16 -16 19 -17 4 -20 2 -14 -15 5 -16 2 -19 -13 -14 -10 3 -31 8 -48 12 -16
4 -36 12 -44 18 -12 9 -13 8 -8 -7 4 -11 3 -16 -3 -12 -34 21 -134 -55 -165
-125 -8 -19 -24 -46 -34 -60 -18 -25 -159 -244 -199 -310 -12 -19 -37 -69 -57
-110 -20 -41 -49 -91 -65 -111 -34 -43 -67 -120 -111 -255 -19 -60 -40 -106
-53 -117 -89 -75 -97 -94 -102 -247 -5 -126 -10 -194 -18 -217 -4 -13 -1 -36
8 -55 8 -18 16 -69 19 -113 3 -59 12 -95 31 -137 21 -44 29 -81 36 -167 5 -61
13 -118 18 -128 15 -27 58 -157 82 -248 12 -44 25 -83 28 -86 4 -4 26 -9 49
-12 l42 -5 -20 21 c-28 30 -46 94 -31 109 7 7 12 24 12 38 0 14 7 35 15 46 8
10 15 27 15 36 0 10 14 31 30 48 17 17 31 36 32 43 0 7 2 17 3 22 2 6 3 15 4
21 1 15 50 36 63 27 8 -4 9 0 4 13 -18 44 -18 91 -1 118 12 18 19 54 22 114 5
77 2 94 -21 151 -14 36 -26 74 -26 86 0 12 -6 30 -14 41 -11 14 -12 22 -3 33
8 9 12 55 13 122 0 105 1 108 31 142 17 20 35 46 40 59 11 30 20 -294 11 -382
-4 -36 -9 -132 -12 -213 -3 -93 -9 -154 -17 -163 -8 -9 -9 -34 -4 -80 5 -50 4
-64 -5 -59 -7 5 -6 -3 3 -21 13 -27 25 -96 33 -187 1 -21 5 -51 9 -66 11 -53
-15 -48 -72 13 -29 31 -53 52 -53 46 0 -6 -4 -8 -10 -5 -5 3 -10 2 -10 -3 0
-13 76 -80 105 -94 39 -18 46 -68 9 -68 -23 0 -74 29 -123 69 -31 25 -43 30
-38 18 4 -10 7 -26 7 -36 0 -25 22 -52 45 -55 16 -2 21 -12 23 -50 3 -45 5
-49 42 -63 31 -12 39 -21 43 -47 3 -17 15 -89 26 -161 12 -71 19 -139 16 -150
-3 -11 -10 -65 -14 -120 -9 -102 -9 -103 -122 -395 -16 -41 -38 -104 -48 -140
-10 -36 -30 -105 -45 -155 -15 -49 -59 -218 -97 -375 -38 -157 -79 -321 -90
-365 -18 -71 -18 -81 -5 -91 9 -6 13 -13 11 -16 -3 -3 12 -6 32 -7 54 -3 75
-6 102 -15 18 -6 21 -10 10 -17 -11 -7 -11 -11 -2 -17 6 -4 -7 -8 -30 -9 -23
0 -45 4 -49 10 -4 7 -11 7 -21 -1 -11 -9 -16 -7 -27 13 -7 14 -18 25 -24 25
-6 0 -5 -5 2 -12 21 -21 13 -32 -9 -12 -22 19 -22 19 -10 -3 7 -14 8 -24 1
-28 -5 -3 -10 0 -11 7 0 7 -5 2 -11 -12 -6 -14 -10 -31 -9 -39 1 -8 -3 -17
-10 -22 -16 -9 -17 -175 -1 -191 6 -6 8 -16 6 -23 -3 -7 43 -77 102 -156 59
-79 162 -227 227 -329 586 -904 603 -934 669 -1160 39 -132 40 -137 33 -240
-4 -58 -10 -148 -14 -201 l-6 -96 -61 -52 c-34 -28 -66 -51 -71 -51 -6 0 -18
-9 -28 -20 -19 -21 -17 -39 11 -137 5 -18 -3 -25 -59 -52 -36 -17 -78 -31 -95
-31 -18 0 -32 -6 -36 -16 -11 -29 -6 -63 12 -73 9 -6 14 -11 11 -11 -16 0 49
-171 75 -197 28 -28 29 -28 179 -31 132 -3 183 0 352 25 46 6 95 29 95 44 0 6
-4 8 -9 4 -6 -3 -13 15 -16 40 -4 25 -12 42 -17 39 -5 -3 -7 -12 -4 -20 3 -8
1 -14 -4 -14 -6 0 -10 -9 -10 -21 0 -11 -4 -17 -10 -14 -6 3 -10 1 -10 -6 0
-7 -3 -10 -6 -7 -3 3 -1 14 5 25 5 10 17 72 27 138 17 117 18 120 56 154 26
23 38 43 38 61 0 18 20 47 66 98 36 40 71 72 79 72 7 0 15 -17 19 -43 14 -98
25 -239 27 -345 3 -110 3 -112 26 -112 l23 0 0 198 c1 179 2 194 15 164 8 -18
17 -48 21 -67 7 -39 8 -39 33 -26 17 9 16 15 -11 98 -41 125 -42 148 -19 223
33 103 25 165 -34 255 -18 28 -35 65 -38 83 -4 18 -18 49 -32 70 -14 20 -25
48 -25 62 0 14 16 81 35 150 20 69 51 199 70 290 90 440 100 623 47 905 -17
94 -35 206 -41 250 -19 161 -34 336 -28 342 4 3 32 5 64 5 68 -1 208 14 275
29 45 10 46 12 42 42 -6 40 -64 586 -65 607 0 8 -7 -3 -16 -25 -21 -49 -53
-87 -69 -81 -7 3 -29 -4 -49 -14 -36 -18 -113 -21 -160 -5 -16 6 -17 5 -5 -4
12 -10 11 -11 -10 -9 -14 2 -25 9 -25 17 0 8 -7 16 -15 18 -13 4 -13 3 0 -7
12 -9 10 -10 -10 -4 -33 9 -33 9 -21 33 7 11 23 24 36 27 20 5 25 13 25 38 0
17 7 60 16 96 8 36 17 106 20 155 6 106 19 164 41 172 24 9 201 -34 234 -58
16 -11 29 -29 29 -39 0 -25 15 -33 38 -21 13 7 23 40 41 138 13 70 29 155 36
188 27 124 46 273 63 505 4 52 11 100 15 107 10 15 23 162 37 409 12 194 11
203 -8 247 -18 42 -20 57 -12 159 4 62 10 120 13 128 3 8 9 125 12 260 9 345
9 344 29 375 10 15 13 24 7 21 -7 -5 -11 1 -11 15 0 21 1 20 22 -6 20 -26 22
-26 28 -9 4 12 1 23 -8 30 -8 6 -12 16 -8 22 3 6 2 22 -4 36 -15 42 -20 77 -9
70 6 -3 9 0 7 7 -1 8 6 26 16 41 10 16 16 34 13 42 -3 8 -1 16 4 18 18 6 14
228 -4 228 -5 0 -6 9 -2 20 3 10 -1 33 -10 50 -19 36 -65 210 -65 245 0 13 -5
27 -11 30 -6 4 -8 13 -5 21 3 8 1 14 -4 14 -5 0 -9 8 -9 18 0 38 -100 412
-121 453 -5 10 -4 21 3 28 8 8 8 11 -1 11 -7 0 -12 6 -12 14 0 8 -5 27 -11 43
-12 29 -13 32 -24 98 -4 22 -9 47 -12 55 -3 8 -7 22 -9 30 -5 25 -26 104 -31
120 -4 8 -8 24 -10 35 -29 155 -100 344 -165 441 -36 53 -92 106 -115 106 -4
0 -16 4 -25 9 -12 7 -18 6 -18 -1 0 -6 -3 -9 -7 -7 -16 10 -91 18 -165 18 -42
0 -89 4 -105 8 -18 5 -46 3 -77 -6z m434 -730 c0 -19 -13 -9 -16 12 -1 8 2 13
7 9 5 -3 9 -12 9 -21z m-29 -106 c-10 -9 -11 -8 -5 6 3 10 9 15 12 12 3 -3 0
-11 -7 -18z m348 -107 c0 -9 -4 -8 -9 5 -5 11 -9 27 -9 35 0 9 4 8 9 -5 5 -11
9 -27 9 -35z m-926 -187 c11 -10 -34 -52 -49 -46 -22 8 -17 33 9 43 28 11 32
12 40 3z m75 -435 c2 -20 -3 -31 -22 -43 -50 -33 -84 1 -51 51 23 35 69 30 73
-8z m842 18 c0 -3 -4 -8 -10 -11 -5 -3 -10 -1 -10 4 0 6 5 11 10 11 6 0 10 -2
10 -4z m128 -131 c-3 -3 -9 2 -12 12 -6 14 -5 15 5 6 7 -7 10 -15 7 -18z m134
-252 c2 -10 1 -34 -2 -53 -6 -33 -7 -32 -11 18 -4 49 4 72 13 35z m-853 -73
c27 -51 26 -61 -5 -83 -19 -14 -28 -16 -38 -8 -10 8 -17 7 -26 -4 -11 -13 -10
-14 5 -9 13 5 16 4 11 -4 -4 -8 -2 -10 8 -6 22 8 33 -36 12 -51 -9 -7 -16 -17
-16 -23 0 -6 -4 -14 -10 -17 -5 -3 -7 0 -4 8 3 8 -1 14 -10 14 -8 0 -13 -4
-10 -9 3 -4 -3 -8 -13 -8 -11 0 -23 -11 -29 -29 l-11 -28 44 3 c24 1 51 8 59
15 11 9 14 9 14 0 0 -7 5 -9 12 -5 7 5 8 3 4 -5 -5 -7 -14 -10 -21 -7 -7 2
-16 -2 -19 -10 -3 -8 -13 -14 -21 -14 -16 0 -45 -22 -45 -34 0 -3 7 -6 15 -6
8 0 15 7 15 15 0 21 44 19 61 -2 11 -15 11 -16 -1 -5 -17 14 -44 16 -35 2 3
-6 -4 -14 -17 -19 -13 -6 -17 -10 -10 -10 7 -1 23 4 35 11 20 10 21 10 8 -5
-14 -18 -77 -24 -66 -7 3 6 -1 10 -10 10 -9 0 -13 -4 -10 -10 3 -5 1 -10 -5
-10 -8 0 -9 7 -5 18 17 40 17 52 2 52 -9 0 -19 -4 -22 -10 -3 -5 -1 -10 6 -10
8 0 8 -4 -1 -15 -7 -8 -9 -15 -5 -15 5 0 6 -2 3 -5 -9 -9 -38 6 -32 16 3 5 10
7 15 4 13 -8 11 0 -6 42 -11 26 -18 33 -28 26 -14 -11 -47 -13 -47 -3 0 15 14
19 26 9 11 -9 15 -7 20 5 7 18 -1 31 -19 31 -6 0 -11 14 -11 30 0 17 -4 33
-10 37 -7 5 -3 8 8 8 11 0 16 -5 13 -13 -3 -7 4 -19 14 -26 11 -6 17 -15 14
-20 -2 -5 3 -15 13 -22 15 -13 16 -12 4 3 -11 14 -10 18 7 27 29 16 38 13 15
-4 -14 -11 -15 -14 -4 -15 8 0 21 9 28 21 8 12 9 18 3 14 -6 -3 -11 2 -11 13
0 10 -10 24 -22 30 -23 10 -23 11 5 11 21 1 27 -4 27 -21 1 -21 2 -21 11 -5
12 21 -6 51 -24 40 -6 -3 -7 -1 -3 6 4 6 16 9 26 6 10 -3 20 0 23 9 3 8 -1 16
-11 18 -12 3 -17 15 -16 36 1 39 4 42 46 49 18 3 35 7 37 9 11 10 20 1 40 -36z
m-573 -17 c-2 -16 -4 -31 -5 -35 0 -4 -13 -15 -27 -24 -22 -15 -27 -15 -35 -3
-10 16 -3 57 13 76 6 7 21 13 34 13 19 0 22 -4 20 -27z m426 -34 c-4 -24 -7
-28 -13 -16 -5 8 -6 22 -3 31 11 27 21 17 16 -15z m968 -38 c0 -29 2 -32 15
-21 13 11 14 10 9 -4 -4 -10 -13 -15 -21 -12 -8 3 -17 6 -19 6 -2 0 -4 21 -4
48 0 34 3 43 10 32 5 -8 10 -30 10 -49z m17 27 c-3 -8 -6 -5 -6 6 -1 11 2 17
5 13 3 -3 4 -12 1 -19z m-1027 -29 c0 -26 -27 -24 -41 2 -9 17 -8 23 2 30 17
10 39 -8 39 -32z m-60 17 c0 -2 -8 -10 -17 -17 -16 -13 -17 -12 -4 4 13 16 21
21 21 13z m263 -46 c-9 -10 -21 -17 -25 -13 -11 6 23 42 34 36 4 -2 0 -12 -9
-23z m-178 -26 c0 -5 -7 -10 -16 -12 -9 -1 -16 4 -16 11 0 8 7 14 16 12 9 -1
16 -6 16 -11z m-87 -42 c-21 -4 -32 -32 -17 -46 9 -8 10 -7 6 6 -7 19 7 33 24
23 7 -5 5 -13 -6 -25 -18 -19 -12 -45 7 -34 6 4 9 3 6 -2 -3 -5 1 -16 10 -24
14 -13 15 -12 9 3 -8 22 8 31 24 11 10 -12 10 -18 -2 -29 -13 -13 -19 -10 -52
21 -20 20 -38 39 -38 43 -5 22 -6 57 -3 63 2 3 14 3 27 0 17 -5 18 -7 5 -10z
m291 -19 c-1 -21 -3 -30 -6 -20 -5 18 -23 24 -23 7 0 -6 -11 -3 -24 7 l-23 18
21 11 c42 24 56 17 55 -23z m262 -464 c-1 -62 4 -163 9 -224 15 -156 18 -607
5 -680 l-10 -60 -21 60 c-31 87 -51 154 -59 200 -9 56 -84 202 -120 234 -27
24 -30 31 -27 78 2 29 -2 61 -7 72 -9 15 -6 22 14 35 31 20 33 58 6 102 l-19
31 34 12 c41 15 74 59 74 99 0 19 13 46 34 74 51 64 77 91 82 85 3 -3 5 -56 5
-118z m-1075 96 c10 -24 -6 -85 -23 -92 -29 -11 -44 47 -23 88 13 23 38 25 46
4z m-4 -610 c6 -30 -1 -75 -12 -75 -12 0 -21 47 -14 75 3 14 10 25 14 25 4 0
10 -11 12 -25z m158 -2645 c63 -5 144 -12 180 -16 l65 -6 22 -82 c13 -44 26
-106 29 -136 4 -30 17 -90 30 -134 45 -150 66 -382 85 -940 6 -169 8 -310 6
-312 -2 -3 -23 51 -47 118 -23 68 -80 218 -126 335 -46 117 -101 259 -123 315
-64 171 -103 236 -249 418 -47 57 -100 135 -118 173 l-32 68 19 69 c10 38 26
88 35 110 l16 40 47 -5 c25 -3 98 -10 161 -15z m281 -2323 c-10 -9 -11 -8 -5
6 3 10 9 15 12 12 3 -3 0 -11 -7 -18z m-30 -70 c-10 -9 -11 -8 -5 6 3 10 9 15
12 12 3 -3 0 -11 -7 -18z m-14 -32 c0 -8 -4 -12 -9 -9 -5 3 -6 10 -3 15 9 13
12 11 12 -6z m-134 -270 c-3 -9 -8 -14 -10 -11 -3 3 -2 9 2 15 9 16 15 13 8
-4z"/>
<path d="M4170 7443 c8 -3 20 -10 26 -15 8 -5 14 -3 18 7 4 12 -2 15 -27 14
-18 0 -25 -3 -17 -6z"/>
<path d="M4236 7431 c-3 -4 6 -19 21 -32 l26 -24 -17 33 c-17 34 -22 37 -30
23z"/>
<path d="M4175 7284 l-16 -25 25 16 c14 9 30 14 35 10 7 -3 8 0 5 9 -9 24 -30
19 -49 -10z"/>
<path d="M3875 8982 c-15 -3 -9 -9 25 -23 25 -10 54 -18 65 -18 17 -1 18 1 4
14 -19 19 -67 33 -94 27z"/>
<path d="M4149 8923 c-13 -16 -12 -17 4 -4 9 7 17 15 17 17 0 8 -8 3 -21 -13z"/>
<path d="M3870 8908 c-43 -47 -11 -87 68 -83 39 2 46 5 44 20 -2 10 1 14 7 10
17 -10 1 27 -22 53 -26 28 -70 29 -97 0z m84 3 c3 -5 -11 -11 -32 -13 -41 -6
-47 -4 -37 11 8 13 62 15 69 2z m-24 -38 c-1 -20 -19 -35 -35 -29 -14 5 -15 9
-5 21 13 16 40 21 40 8z"/>
<path d="M4035 8670 c3 -5 13 -10 21 -10 8 0 12 5 9 10 -3 6 -13 10 -21 10 -8
0 -12 -4 -9 -10z"/>
<path d="M4110 8530 c-8 -5 -10 -10 -5 -10 6 0 17 5 25 10 8 5 11 10 5 10 -5
0 -17 -5 -25 -10z"/>
<path d="M4166 8531 c-4 -5 3 -7 14 -4 23 6 26 13 6 13 -8 0 -17 -4 -20 -9z"/>
<path d="M3937 8519 c7 -7 15 -10 18 -7 3 3 -2 9 -12 12 -14 6 -15 5 -6 -5z"/>
<path d="M4038 8523 c12 -2 30 -2 40 0 9 3 -1 5 -23 4 -22 0 -30 -2 -17 -4z"/>
<path d="M3859 8333 c-13 -16 -12 -17 4 -4 9 7 17 15 17 17 0 8 -8 3 -21 -13z"/>
<path d="M4235 8329 c-38 -10 -84 -19 -102 -21 -17 -1 -30 -6 -27 -10 11 -18
154 10 189 36 24 18 27 19 -60 -5z"/>
<path d="M3176 6064 c18 -26 28 -27 18 -1 -3 8 -12 18 -20 21 -11 4 -11 0 2
-20z"/>
<path d="M4617 4466 c-15 -32 -27 -75 -27 -96 0 -21 -9 -66 -19 -100 -16 -52
-17 -61 -4 -56 8 3 30 6 49 6 19 0 34 4 34 9 0 5 -11 8 -25 6 -30 -3 -29 18 1
23 18 3 71 72 56 72 -5 0 -8 18 -7 40 0 28 4 40 15 40 10 1 7 5 -8 13 -12 7
-19 16 -16 20 4 4 2 7 -5 7 -7 0 -10 4 -7 8 3 5 2 22 -3 38 -7 28 -8 28 -34
-30z"/>
<path d="M4518 4194 c-20 -11 -20 -11 4 -16 13 -2 40 4 59 14 l34 18 -38 -2
c-21 -2 -47 -8 -59 -14z"/>
<path d="M6792 3888 c-7 -7 -12 -8 -12 -2 0 5 -3 5 -8 -1 -4 -5 -30 -22 -57
-36 -61 -32 -78 -66 -53 -109 14 -25 14 -30 2 -41 -26 -21 -105 -157 -140
-241 -71 -167 -128 -419 -159 -697 -37 -341 -44 -1239 -10 -1301 8 -14 19 -37
25 -52 6 -14 18 -29 26 -32 8 -3 14 -15 14 -26 0 -12 7 -20 16 -20 12 0 15 -6
10 -25 -5 -21 -3 -25 16 -25 15 0 19 3 11 8 -7 4 -10 17 -6 30 3 12 9 20 13
17 4 -3 11 12 15 33 5 27 3 39 -7 46 -12 7 -12 14 4 44 13 26 18 58 18 114 0
105 18 314 36 423 18 106 52 247 63 258 7 7 67 1 189 -19 l32 -5 0 420 0 420
-32 5 c-18 3 -58 9 -89 13 l-57 8 19 73 c24 97 61 167 115 222 l44 46 0 232
c0 238 -3 255 -38 220z"/>
</g>
</svg>
